<svg width="0" height="0" class="hidden">
  <symbol fill="currentColor" xmlns="http://www.w3.org/2000/svg" viewBox="0 0 24 24" id="line-height-svgrepo-com">
    <path d="M13 6L21 6.00048M13 12L21 12.0005M13 18L21 18.0005M6 4V20M6 4L3 7M6 4L9 7M6 20L3 17M6 20L9 17" stroke="#000000" stroke-width="2" stroke-linecap="round" stroke-linejoin="round"></path>
  </symbol>
  <symbol version="1.1" id="samples-svgrepo-com" xmlns="http://www.w3.org/2000/svg" xmlns:xlink="http://www.w3.org/1999/xlink" xml:space="preserve" viewBox="0 0 297.5 297.5">
    <g id="XMLID_40_">
      <g>
        <path d="M277.71,158.52v85.7H19.79v-85.7h6.53v40.54c0,16.98,13.81,30.78,30.78,30.78
			s30.78-13.8,30.78-30.78v-40.54h30.09v40.54c0,16.98,13.81,30.78,30.78,30.78c16.98,0,30.78-13.8,30.78-30.78v-40.54h30.1v40.54
			c0,16.98,13.8,30.78,30.78,30.78c16.97,0,30.78-13.8,30.78-30.78v-40.54H277.71z"></path>
        <rect x="218.66" y="53.28" width="43.49" height="10.53"></rect>
        <rect x="229.17" y="83.35" width="22.48" height="23.92"></rect>
        <rect x="137.51" y="83.35" width="22.48" height="23.92"></rect>
        <rect x="127.01" y="53.28" width="43.49" height="10.53"></rect>
        <rect x="35.35" y="53.28" width="43.49" height="10.53"></rect>
        <rect x="45.86" y="83.35" width="22.48" height="23.92"></rect>
        <path d="M251.65,126.81v72.25c0,6.2-5.05,11.24-11.24,11.24c-6.2,0-11.24-5.04-11.24-11.24v-72.25H251.65z"></path>
        <path d="M68.34,126.81v72.25c0,6.2-5.04,11.24-11.24,11.24s-11.24-5.04-11.24-11.24v-72.25H68.34z"></path>
        <path d="M159.99,126.81v72.25c0,6.2-5.04,11.24-11.24,11.24s-11.24-5.04-11.24-11.24v-72.25H159.99z"></path>
        <path d="M297.25,148.75v105.24c0,5.4-4.37,9.77-9.77,9.77H10.02c-5.39,0-9.77-4.37-9.77-9.77V148.75c0-5.4,4.38-9.77,9.77-9.77
			h16.3V83.35h-0.74c-5.39,0-9.77-4.38-9.77-9.77V43.51c0-5.4,4.38-9.77,9.77-9.77h63.03c5.4,0,9.77,4.37,9.77,9.77v30.07
			c0,5.39-4.37,9.77-9.77,9.77h-0.73v55.63h30.09V83.35h-0.73c-5.4,0-9.77-4.38-9.77-9.77V43.51c0-5.4,4.37-9.77,9.77-9.77h63.03
			c5.39,0,9.77,4.37,9.77,9.77v30.07c0,5.39-4.38,9.77-9.77,9.77h-0.74v55.63h30.1V83.35h-0.74c-5.39,0-9.77-4.38-9.77-9.77V43.51
			c0-5.4,4.38-9.77,9.77-9.77h63.03c5.4,0,9.77,4.37,9.77,9.77v30.07c0,5.39-4.37,9.77-9.77,9.77h-0.73v55.63h16.29
			C292.88,138.98,297.25,143.35,297.25,148.75z M277.71,244.22v-85.7h-6.52v40.54c0,16.98-13.81,30.78-30.78,30.78
			c-16.98,0-30.78-13.8-30.78-30.78v-40.54h-30.1v40.54c0,16.98-13.8,30.78-30.78,30.78c-16.97,0-30.78-13.8-30.78-30.78v-40.54
			H87.88v40.54c0,16.98-13.81,30.78-30.78,30.78s-30.78-13.8-30.78-30.78v-40.54h-6.53v85.7H277.71z M262.15,63.81V53.28h-43.49
			v10.53H262.15z M251.65,199.06v-72.25h-22.48v72.25c0,6.2,5.04,11.24,11.24,11.24C246.6,210.3,251.65,205.26,251.65,199.06z
			 M251.65,107.27V83.35h-22.48v23.92H251.65z M170.5,63.81V53.28h-43.49v10.53H170.5z M159.99,199.06v-72.25h-22.48v72.25
			c0,6.2,5.04,11.24,11.24,11.24S159.99,205.26,159.99,199.06z M159.99,107.27V83.35h-22.48v23.92H159.99z M78.84,63.81V53.28H35.35
			v10.53H78.84z M68.34,199.06v-72.25H45.86v72.25c0,6.2,5.04,11.24,11.24,11.24S68.34,205.26,68.34,199.06z M68.34,107.27V83.35
			H45.86v23.92H68.34z"></path>
      </g>
      <g></g>
    </g>
  </symbol>
  <symbol fill="none" xmlns="http://www.w3.org/2000/svg" viewBox="0 0 24 24" id="search-alt-2-svgrepo-com">
    <path d="M11 6C13.7614 6 16 8.23858 16 11M16.6588 16.6549L21 21M19 11C19 15.4183 15.4183 19 11 19C6.58172 19 3 15.4183 3 11C3 6.58172 6.58172 3 11 3C15.4183 3 19 6.58172 19 11Z" stroke="#000000" stroke-width="2" stroke-linecap="round" stroke-linejoin="round"></path>
  </symbol>
  <symbol fill="none" xmlns="http://www.w3.org/2000/svg" viewBox="0 0 24 24" id="settings-svgrepo-com">
    <circle cx="12" cy="12" r="3" stroke="#1C274C" stroke-width="1.5"></circle>
    <path d="M3.66122 10.6392C4.13377 10.9361 4.43782 11.4419 4.43782 11.9999C4.43781 12.558 4.13376 13.0638 3.66122 13.3607C3.33966 13.5627 3.13248 13.7242 2.98508 13.9163C2.66217 14.3372 2.51966 14.869 2.5889 15.3949C2.64082 15.7893 2.87379 16.1928 3.33973 16.9999C3.80568 17.8069 4.03865 18.2104 4.35426 18.4526C4.77508 18.7755 5.30694 18.918 5.83284 18.8488C6.07287 18.8172 6.31628 18.7185 6.65196 18.5411C7.14544 18.2803 7.73558 18.2699 8.21895 18.549C8.70227 18.8281 8.98827 19.3443 9.00912 19.902C9.02332 20.2815 9.05958 20.5417 9.15224 20.7654C9.35523 21.2554 9.74458 21.6448 10.2346 21.8478C10.6022 22 11.0681 22 12 22C12.9319 22 13.3978 22 13.7654 21.8478C14.2554 21.6448 14.6448 21.2554 14.8478 20.7654C14.9404 20.5417 14.9767 20.2815 14.9909 19.9021C15.0117 19.3443 15.2977 18.8281 15.7811 18.549C16.2644 18.27 16.8545 18.2804 17.3479 18.5412C17.6837 18.7186 17.9271 18.8173 18.1671 18.8489C18.693 18.9182 19.2249 18.7756 19.6457 18.4527C19.9613 18.2106 20.1943 17.807 20.6603 17C20.8677 16.6407 21.029 16.3614 21.1486 16.1272M20.3387 13.3608C19.8662 13.0639 19.5622 12.5581 19.5621 12.0001C19.5621 11.442 19.8662 10.9361 20.3387 10.6392C20.6603 10.4372 20.8674 10.2757 21.0148 10.0836C21.3377 9.66278 21.4802 9.13092 21.411 8.60502C21.3591 8.2106 21.1261 7.80708 20.6601 7.00005C20.1942 6.19301 19.9612 5.7895 19.6456 5.54732C19.2248 5.22441 18.6929 5.0819 18.167 5.15113C17.927 5.18274 17.6836 5.2814 17.3479 5.45883C16.8544 5.71964 16.2643 5.73004 15.781 5.45096C15.2977 5.1719 15.0117 4.6557 14.9909 4.09803C14.9767 3.71852 14.9404 3.45835 14.8478 3.23463C14.6448 2.74458 14.2554 2.35523 13.7654 2.15224C13.3978 2 12.9319 2 12 2C11.0681 2 10.6022 2 10.2346 2.15224C9.74458 2.35523 9.35523 2.74458 9.15224 3.23463C9.05958 3.45833 9.02332 3.71848 9.00912 4.09794C8.98826 4.65566 8.70225 5.17191 8.21891 5.45096C7.73557 5.73002 7.14548 5.71959 6.65205 5.4588C6.31633 5.28136 6.0729 5.18269 5.83285 5.15108C5.30695 5.08185 4.77509 5.22436 4.35427 5.54727C4.03866 5.78945 3.80569 6.19297 3.33974 7C3.13231 7.35929 2.97105 7.63859 2.85138 7.87273" stroke="#1C274C" stroke-width="1.5" stroke-linecap="round"></path>
  </symbol>
  <symbol version="1.1" xmlns="http://www.w3.org/2000/svg" xmlns:xlink="http://www.w3.org/1999/xlink" preserveAspectRatio="xMidYMid" viewBox="-84.5 0 425 425" id="snap-svg-svgrepo-com">
    <defs>
      <linearGradient x1="50%" y1="-352.925786%" x2="50%" y2="96.7175267%" id="linearGradient-1">
        <stop stop-color="#002E3B" offset="0%"></stop>
        <stop stop-color="#002639" offset="100%"></stop>
      </linearGradient>
      <linearGradient x1="50%" y1="-2.80786187%" x2="50%" y2="428.758892%" id="linearGradient-2">
        <stop stop-color="#002E3B" offset="0%"></stop>
        <stop stop-color="#002639" offset="100%"></stop>
      </linearGradient>
      <radialGradient cx="16.4234038%" cy="142.999709%" fx="16.4234038%" fy="142.999709%" r="295.57111%" id="radialGradient-3">
        <stop stop-color="#00BC85" offset="0%"></stop>
        <stop stop-color="#149D91" offset="100%"></stop>
      </radialGradient>
      <radialGradient cx="16.423338%" cy="-42.999755%" fx="16.423338%" fy="-42.999755%" r="357.003966%" id="radialGradient-4">
        <stop stop-color="#00BC85" offset="0%"></stop>
        <stop stop-color="#149D91" offset="100%"></stop>
      </radialGradient>
      <radialGradient cx="11.4670327%" cy="-40.4580495%" fx="11.4670327%" fy="-40.4580495%" r="343.189366%" id="radialGradient-5">
        <stop stop-color="#004473" offset="0%"></stop>
        <stop stop-color="#00345F" offset="100%"></stop>
      </radialGradient>
    </defs>
    <g>
      <path d="M65.6992339,330.300644 L0.107733463,362.384436 L127.400289,424.384842 L255.039336,362.18981 L189.28052,329.651265 L127.352045,360.40471 L65.6992339,330.300644 Z" fill="url(#linearGradient-1)"></path>
      <path d="M57.6019991,98.1748765 L57.6019991,98.1541795 L127.531267,64.0476413 L197.46571,98.1541795 L255.003891,62.1986373 L127.484698,0 L0,62.1796642 L0,62.2348584 L57.5537042,98.1990237 L57.6019991,98.1748765 L57.6019991,98.1748765 Z" fill="url(#linearGradient-2)"></path>
      <path d="M0.15618046,298.428426 L63.071162,267.624645 L127.784793,299.667263 L0.15618046,362.461971 L0.15618046,298.428426 Z" fill="url(#radialGradient-3)"></path>
      <path d="M196.677541,99.4103235 C196.67754,132.999495 196.677539,200.177839 196.677539,200.177839 L126.336262,234.601641 L191.022434,266.940614 L254.000917,236.143726 L254.00091,62.1907831 L196.677541,98.1665853 L196.677541,99.4103235 Z" fill="url(#radialGradient-4)"></path>
      <path d="M255.003891,298.216498 L57.5889764,199.96591 L57.5889774,98.1815418 L1.42108547e-14,62.2302408 L1.42108547e-14,63.1375243 L1.42108547e-14,235.931797 L255.003891,362.253488 L255.003891,298.216498 Z" fill="url(#radialGradient-5)"></path>
    </g>
  </symbol>
  <symbol xmlns="http://www.w3.org/2000/svg" xmlns:xlink="http://www.w3.org/1999/xlink" viewBox="0,0,256,256" id="tick">
    <g fill="#2dd871" fill-rule="nonzero" stroke="none" stroke-width="1" stroke-linecap="butt" stroke-linejoin="miter" stroke-miterlimit="10" stroke-dasharray="" stroke-dashoffset="0" font-family="none" font-weight="none" font-size="none" text-anchor="none">
      <g transform="scale(8.53333,8.53333)">
        <path d="M26.98047,5.99023c-0.2598,0.00774 -0.50638,0.11632 -0.6875,0.30273l-15.29297,15.29297l-6.29297,-6.29297c-0.25082,-0.26124 -0.62327,-0.36647 -0.97371,-0.27511c-0.35044,0.09136 -0.62411,0.36503 -0.71547,0.71547c-0.09136,0.35044 0.01388,0.72289 0.27511,0.97371l7,7c0.39053,0.39037 1.02353,0.39037 1.41406,0l16,-16c0.29576,-0.28749 0.38469,-0.72707 0.22393,-1.10691c-0.16075,-0.37985 -0.53821,-0.62204 -0.9505,-0.60988z"></path>
      </g>
    </g>
  </symbol>
  <symbol fill="#000000" version="1.1" xmlns="http://www.w3.org/2000/svg" viewBox="0 0 32 32" id="tick-checkbox-svgrepo-com">
    <title>tick-checkbox</title>
    <path d="M0 26.016v-20q0-2.496 1.76-4.256t4.256-1.76h20q2.464 0 4.224 1.76t1.76 4.256v20q0 2.496-1.76 4.224t-4.224 1.76h-20q-2.496 0-4.256-1.76t-1.76-4.224zM4 26.016q0 0.832 0.576 1.408t1.44 0.576h20q0.8 0 1.408-0.576t0.576-1.408v-20q0-0.832-0.576-1.408t-1.408-0.608h-20q-0.832 0-1.44 0.608t-0.576 1.408v20zM7.584 16q0-0.832 0.608-1.408t1.408-0.576 1.408 0.576l2.848 2.816 7.072-7.040q0.576-0.608 1.408-0.608t1.408 0.608 0.608 1.408-0.608 1.408l-8.48 8.48q-0.576 0.608-1.408 0.608t-1.408-0.608l-4.256-4.256q-0.608-0.576-0.608-1.408z"></path>
  </symbol>
  <symbol fill="none" xmlns="http://www.w3.org/2000/svg" viewBox="0 -0.5 25 25" id="tick-svgrepo-com">
    <path d="M5.5 12.5L10.167 17L19.5 8" stroke="#000000" stroke-width="1.5" stroke-linecap="round" stroke-linejoin="round"></path>
  </symbol>
  <symbol fill="#000000" version="1.1" xmlns="http://www.w3.org/2000/svg" xmlns:xlink="http://www.w3.org/1999/xlink" enable-background="new 0 0 512 512" xml:space="preserve" viewBox="0 0 512 512" id="wordpress-svgrepo-com">
    <g id="5151e0c8492e5103c096af88a51f5fb6">
      <path display="inline" d="M256,0.5C115.117,0.5,0.5,115.109,0.5,255.992C0.5,396.874,115.117,511.5,256,511.5
		c140.879,0,255.5-114.626,255.5-255.508C511.5,115.109,396.879,0.5,256,0.5z M26.287,255.992c0-33.306,7.145-64.923,19.89-93.488
		l109.582,300.225C79.117,425.502,26.287,346.914,26.287,255.992z M256,485.722c-22.547,0-44.309-3.307-64.898-9.361l68.932-200.274
		l70.604,193.446c0.466,1.135,1.035,2.179,1.646,3.165C308.406,481.102,282.748,485.722,256,485.722z M287.659,148.286
		c13.827-0.724,26.29-2.179,26.29-2.179c12.376-1.464,10.916-19.658-1.468-18.93c0,0-37.207,2.919-61.23,2.919
		c-22.568,0-60.494-2.919-60.494-2.919c-12.388-0.728-13.839,18.198-1.456,18.93c0,0,11.715,1.455,24.095,2.179l35.784,98.063
		l-50.277,150.767l-83.649-248.83c13.84-0.724,26.286-2.179,26.286-2.179c12.372-1.464,10.912-19.658-1.468-18.93
		c0,0-37.198,2.919-61.222,2.919c-4.309,0-9.386-0.108-14.784-0.283C105.141,67.457,175.745,26.274,256,26.274
		c59.8,0,114.251,22.868,155.121,60.315c-0.989-0.058-1.958-0.183-2.978-0.183c-22.563,0-38.574,19.653-38.574,40.771
		c0,18.93,10.92,34.948,22.564,53.874c8.737,15.299,18.938,34.953,18.938,63.355c0,19.657-7.56,42.475-17.479,74.259l-22.917,76.554
		L287.659,148.286z M371.486,454.545l70.163-202.861c13.104-32.77,17.47-58.977,17.47-82.272c0-8.458-0.558-16.31-1.547-23.625
		c17.932,32.715,28.137,70.262,28.137,110.205C485.709,340.738,439.782,414.727,371.486,454.545z"></path>
    </g>
  </symbol>
  <symbol fill="none" xmlns="http://www.w3.org/2000/svg" viewBox="0 0 24 24" id="chevron-right-double-svgrepo-com">
    <path d="M6 17L11 12L6 7M13 17L18 12L13 7" stroke="#000000" stroke-width="2" stroke-linecap="round" stroke-linejoin="round"></path>
  </symbol>
  <symbol fill="none" xmlns="http://www.w3.org/2000/svg" viewBox="0 0 24 24" id="clock-ten-svgrepo-com">
    <path d="M12 7V12L9.5 10.5M21 12C21 16.9706 16.9706 21 12 21C7.02944 21 3 16.9706 3 12C3 7.02944 7.02944 3 12 3C16.9706 3 21 7.02944 21 12Z" stroke="#000000" stroke-width="2" stroke-linecap="round" stroke-linejoin="round"></path>
  </symbol>
  <symbol version="1.1" xmlns="http://www.w3.org/2000/svg" viewBox="0 0 1024 1024" id="computer-svgrepo-com">
    <path d="M511.3 676.9m-10 0a10 10 0 1 0 20 0 10 10 0 1 0-20 0Z" fill="#E73B37"></path>
    <path d="M960 756V138.5H64V756h320.1v85.5H256.2v44h511.9v-44h-128V756H960zM108 182.5h808v427.1H108V182.5z m488.1 659h-168V756h168v85.5zM108 712v-82.5h808V712H108z" fill="#39393A"></path>
    <path d="M167.536 327.703l90.72-90.721 14.143 14.142-90.721 90.72zM172.959 423.469l181.159-181.16 14.142 14.143L187.1 437.61z" fill="#E73B37"></path>
  </symbol>
  <symbol xmlns="http://www.w3.org/2000/svg" viewBox="0 0 48 48" id="easyconnect-svgrepo-com">
    <defs></defs>
    <path d="M36.9142,5.6644H15.2l-9.7,9.81,6.9076,6.76h22.413l-7.0545-6.76Z"></path>
    <path d="M27.7657,15.4747H5.5"></path>
    <path d="M13.62,25.6178H35.96l6.54,6.7239-9.406,9.9939h-22.89l9.9939-9.9939Z"></path>
    <path d="M20.1961,32.3414H42.4983"></path>
  </symbol>
  <symbol fill="#000000" xmlns="http://www.w3.org/2000/svg" viewBox="0 0 64 64" id="growth-graph-increase-svgrepo-com">
    <g id="a"></g>
    <g id="b">
      <path d="M53.2676,21.2861c-1.0825-.6357-2.3833-.6509-3.4761-.0396-2.353,1.3145-4.3789,2.7593-6.021,4.2944-.4897,.457-.7705,1.1182-.7705,1.814v26.145c0,.8271,.6729,1.5,1.5,1.5h9c.8271,0,1.5-.6729,1.5-1.5V24.3076c0-1.2554-.6475-2.3848-1.7324-3.0215Zm.7324,32.2139c0,.2759-.2241,.5-.5,.5h-9c-.2759,0-.5-.2241-.5-.5V27.355c0-.4194,.165-.8145,.4531-1.0835,1.5835-1.48,3.5435-2.877,5.8257-4.1519,.3818-.2129,.7988-.3193,1.2153-.3193,.436,0,.8721,.1162,1.2676,.3481,.7754,.4556,1.2383,1.2627,1.2383,2.1592v29.1924Zm-17.7324-22.2139c-1.083-.6357-2.3828-.6509-3.4761-.0396-2.353,1.3145-4.3789,2.7593-6.021,4.2944-.4897,.457-.7705,1.1182-.7705,1.814v16.145c0,.8271,.6729,1.5,1.5,1.5h9c.8271,0,1.5-.6729,1.5-1.5v-19.1924c0-1.2554-.6475-2.3848-1.7324-3.0215Zm.7324,22.2139c0,.2759-.2241,.5-.5,.5h-9c-.2759,0-.5-.2241-.5-.5v-16.145c0-.4194,.165-.8145,.4531-1.0835,1.5835-1.48,3.5435-2.877,5.8257-4.1519,.3818-.2129,.7988-.3193,1.2153-.3193,.436,0,.8721,.1162,1.2676,.3481,.7754,.4556,1.2383,1.2627,1.2383,2.1592v19.1924Zm-17.7324-13.2139c-1.0835-.6357-2.3833-.6509-3.4761-.0396-2.353,1.3145-4.3789,2.7593-6.021,4.2944-.4897,.457-.7705,1.1182-.7705,1.814v7.145c0,.8271,.6729,1.5,1.5,1.5h9c.8271,0,1.5-.6729,1.5-1.5v-10.1924c0-1.2554-.6475-2.3848-1.7324-3.0215Zm.7324,13.2139c0,.2759-.2241,.5-.5,.5H10.5c-.2759,0-.5-.2241-.5-.5v-7.145c0-.4194,.165-.8145,.4531-1.0835,1.5835-1.48,3.5435-2.877,5.8257-4.1519,.3818-.2129,.7988-.3193,1.2153-.3193,.436,0,.8721,.1162,1.2676,.3481,.7754,.4556,1.2383,1.2627,1.2383,2.1592v10.1924ZM43.6836,20.1655c.3647-3.4077,.4043-6.7339,.1177-9.8862-.0664-.7373-.6958-1.2827-1.4419-1.272-3.7036,.1211-7.1143,.7529-10.1372,1.8789-.5161,.1924-.8765,.6313-.9644,1.1743-.0869,.54,.1152,1.0674,.542,1.4097l1.6562,1.3315c-.9927,1.4741-5.3232,7.1528-14.8311,10.1787-1.1265,.3579-2.333,.6167-3.4995,.8667-3.2983,.7065-6.4131,1.3745-6.0996,4.1621,.0684,.6157,.4351,1.4844,1.7964,2.125,1.188,.5591,2.9023,.8423,4.8721,.8423,4.1152,0,9.3442-1.2358,13.21-3.7739,6.1064-4.0073,9.9341-7.9927,11.0273-9.1943l1.4014,1.1226c.4146,.3335,.9805,.4111,1.4722,.2065,.4937-.2056,.8223-.6436,.8784-1.1719Zm-.9941-.1064c-.0244,.23-.1958,.3252-.2686,.3555-.1582,.0654-.3306,.042-.4629-.064l-1.772-1.4199c-.2114-.1699-.5195-.1392-.6943,.0674-.0391,.0464-3.9951,4.6826-11.1362,9.3687-5.3623,3.5215-13.7422,4.4468-17.1074,2.8628-.7568-.356-1.1699-.8037-1.228-1.3315-.2026-1.7969,1.8877-2.3384,5.3149-3.0732,1.1899-.2549,2.4204-.5186,3.5933-.8911,11.3286-3.6055,15.4551-10.6943,15.6255-10.9946,.1206-.2134,.0693-.4829-.1221-.6362l-2.0059-1.6118c-.2051-.165-.1943-.3843-.1807-.4707,.0142-.0884,.0747-.3032,.3257-.3965,2.9219-1.0884,6.2261-1.6997,9.8208-1.8174h.0122c.2046,0,.3833,.1602,.4014,.3628v.0005c.2808,3.0869,.2422,6.3472-.1157,9.6895Z"></path>
    </g>
  </symbol>
</svg>